<?xml version="1.0" encoding="utf-8"?>
<!-- Generator: Adobe Illustrator 26.0.1, SVG Export Plug-In . SVG Version: 6.00 Build 0)  -->
<svg version="1.1" id="Logo" xmlns="http://www.w3.org/2000/svg" xmlns:xlink="http://www.w3.org/1999/xlink" x="0px" y="0px"
	 width="93.3392px" height="28.3465px" viewBox="0 0 93.3392 28.3465" style="enable-background:new 0 0 93.3392 28.3465;"
	 xml:space="preserve">
<style type="text/css">
	.st0{fill:#FFFFFF;}
</style>
<g>
	<polygon class="st0" points="79.1528,0.0035 72.0671,0.0035 67.3433,9.4511 72.5992,9.4522 75.6289,3.4007 88.0832,28.3465 
		93.3392,28.3465 	"/>
	<path class="st0" d="M76.7909,11.8153l-61.4098-0.0022l-2.3619,4.7238h9.4477v7.0857H14.093c-5.1777,0-9.3902-4.2194-9.3902-9.4443
		s4.2125-9.4522,9.3902-9.4522h10.7269V0L14.093,0C6.3221,0,0,6.3604,0,14.1784c0,7.8179,6.3221,14.1681,14.093,14.1681h13.0977
		V16.5369h7.0857v11.8096h18.8953l2.3619-4.7238H39.0003v-7.0857h24.7705l-5.8752,11.8096h5.2534l5.9055-11.8096h10.0984
		L76.7909,11.8153z"/>
	<polygon class="st0" points="39.0005,4.7261 55.5337,4.7273 55.5337,0.0035 34.274,0 34.2744,9.4522 39.0005,9.4522 	"/>
</g>
</svg>
