<?xml version="1.0" encoding="utf-8"?>
<!-- Generator: Adobe Illustrator 26.0.2, SVG Export Plug-In . SVG Version: 6.00 Build 0)  -->
<svg version="1.1" id="Icon" xmlns="http://www.w3.org/2000/svg" xmlns:xlink="http://www.w3.org/1999/xlink" x="0px" y="0px"
	 viewBox="0 0 48 48" enable-background="new 0 0 48 48" xml:space="preserve">
<path fill="#FFFFFF" d="M11.93555,10.97855l1.94727,31.18359c0.13574,2.15234,1.92969,3.83789,4.08594,3.83789h12.75
	c2.15625,0,3.9502-1.68555,4.08594-3.83789l1.94727-31.16113L11.93555,10.97855z M32.80859,42.03715
	c-0.06934,1.10059-0.9873,1.96289-2.08984,1.96289h-12.75c-1.10254,0-2.02051-0.8623-2.08984-1.96289l-1.31494-21.05762H30v-2
	H14.43896l-0.37451-5.99902l20.55859,0.01855L32.80859,42.03715z"/>
<circle fill="#FFFFFF" cx="31" cy="3.97953" r="2"/>
<circle fill="#FFFFFF" cx="28" cy="25.97953" r="2"/>
<circle fill="#FFFFFF" cx="21" cy="31.97953" r="2"/>
<circle fill="#FFFFFF" cx="27" cy="38.97953" r="2"/>
<circle fill="#FFFFFF" cx="20" cy="5.97953" r="2"/>
</svg>
