<?xml version="1.0" encoding="utf-8"?>
<!-- Generator: Adobe Illustrator 24.3.0, SVG Export Plug-In . SVG Version: 6.00 Build 0)  -->
<svg version="1.1" id="Icon" xmlns="http://www.w3.org/2000/svg" xmlns:xlink="http://www.w3.org/1999/xlink" x="0px" y="0px"
	 viewBox="0 0 48 48" enable-background="new 0 0 48 48" xml:space="preserve">
<path fill="#FFFFFF" d="M41.07812,34.3894C42.98389,31.26318,44,27.68726,44,24c0-11.02832-8.97168-20-20-20S4,12.97168,4,24
	c0,3.82373,1.09961,7.3855,2.96875,10.42554l1.45264-1.45239C6.89014,30.32861,6,27.26953,6,24c0-9.9248,8.0752-18,18-18
	s18,8.0752,18,18c0,3.15601-0.82422,6.2207-2.37842,8.93311l-1.95166-1.95166l-3.12012-3.12012l3.55273-3.55176L27.50293,13.70996
	c-2.34863-2.35156-6.17188-2.34961-8.51855,0l-0.70703,0.70703l14.15137,14.15137l0.70703,0.70703l9.23633,9.23633l1.41406-1.41406
	l-0.44141-0.44141L41.07812,34.3894z M21.19434,14.50586c1.54395-0.91211,3.57031-0.70605,4.89453,0.61816l9.18555,9.18555
	l-2.13867,2.1377L21.19434,14.50586z"/>
<path fill="#FFFFFF" d="M25.79346,33.93677l1.41406-1.41357l-4.42041-4.42407c0.27246-0.50488,0.43262-1.06519,0.43262-1.65479
	c0-0.93848-0.36621-1.82031-1.0293-2.4834l-6.71875-6.71973l-1.41406,1.41406l6.71875,6.71973
	c0.28613,0.28613,0.44336,0.66504,0.44336,1.06934c0,0.40332-0.15723,0.78223-0.44336,1.06836
	c-0.57129,0.57227-1.56543,0.57422-2.13867,0l-6.71875-6.71875l-1.41406,1.41406l6.71875,6.71875
	c0.66309,0.66406,1.5459,1.0293,2.4834,1.0293c0.5957,0,1.16064-0.1626,1.66943-0.4397L25.79346,33.93677z"/>
<path id="DNA_2_" fill="#FFFFFF" d="M35.61108,37.59788V35.7014c-4.88768,0.31988-7.14372,5.77417-9.25098,6.92285v-3.81637
	c0.36621,0.30151,0.81524,0.69264,1.15362,1.05397c0.15332-0.17798,0.93378-1.0938,1.24238-1.44097
	c-1.52686-1.58325-3.43359-2.94141-6.44873-2.94141c-4.03125,0-6.08301,2.43457-7.89355,4.58301
	c-0.71045,0.84351-1.3877,1.62939-2.14453,2.27393l0.00419-3.46361c0.31494,0.27002,0.68741,0.64254,0.98185,0.957
	c0.1543-0.18018,0.96123-1.07908,1.26348-1.41941c-1.36475-1.41187-3.04053-2.63354-5.5249-2.8772v1.89017
	c0.58252,0.07397,1.09863,0.22681,1.57568,0.43115v5.56197c-0.47705,0.20361-0.99414,0.35498-1.57568,0.42993v1.87699
	c4.86781-0.2766,7.16568-5.54255,9.1084-6.77563v3.55099c-0.30469-0.26318-0.68905-0.61256-0.97519-0.91749
	c-0.15625,0.18164-0.94815,1.11573-1.2504,1.45679c1.52441,1.5769,3.42822,2.92773,6.43066,2.92773
	c4.03711,0,6.08789-2.43457,7.89941-4.58496c0.70508-0.83643,1.37744-1.61719,2.12695-2.25952v3.3899
	c-0.3042-0.26147-0.66994-0.63192-0.9551-0.93539c-0.1582,0.18457-0.96433,1.13948-1.26365,1.4764
	c1.35986,1.40259,3.02637,2.61572,5.49609,2.86133v-1.88769c-0.58301-0.07593-1.09961-0.23022-1.57715-0.43604v-5.55713
	C34.51147,37.82713,35.02905,37.67405,35.61108,37.59788z M24.65991,43.64671c-0.46875,0.18726-0.98291,0.31812-1.55225,0.38208
	v-6.6279c0.57031,0.06348,1.08301,0.19531,1.55225,0.38232V43.64671z M19.80249,37.86476
	c0.48389-0.21045,1.01172-0.36548,1.60498-0.44141v6.60568c-0.59375-0.07568-1.12061-0.23047-1.60498-0.44092V37.86476z"/>
</svg>
