<?xml version="1.0" encoding="utf-8"?>
<!-- Generator: Adobe Illustrator 26.0.2, SVG Export Plug-In . SVG Version: 6.00 Build 0)  -->
<svg version="1.1" id="Icon" xmlns="http://www.w3.org/2000/svg" xmlns:xlink="http://www.w3.org/1999/xlink" x="0px" y="0px"
	 viewBox="0 0 48 48" enable-background="new 0 0 48 48" xml:space="preserve">
<g>
	<circle fill="#FFFFFF" cx="18" cy="34.97953" r="2"/>
	<circle fill="#FFFFFF" cx="28" cy="29.97953" r="2"/>
	<path fill="#FFFFFF" d="M38.61621,37.06742l-9.62109-23.28516V5.97953H34v-2H14v2h12.99512v8.19922l2.10498,5.09387
		c-1.16455,0.43884-1.91357,1.32288-2.54541,2.07996c-0.87305,1.04785-1.42188,1.64062-2.56543,1.64062
		c-1.14062,0-1.68945-0.59277-2.56152-1.63965c-0.62891-0.75488-1.37451-1.63452-2.53027-2.0752l2.1084-5.09961V9.98051h-2v3.80176
		L9.38379,37.05375c-0.63965,1.54688-0.46582,3.30176,0.46387,4.69336c0.92871,1.38867,2.47852,2.21875,4.14746,2.21973
		l20.00293,0.0127c0.00195,0,0.00293,0,0.00391,0c1.66895,0,3.21973-0.8291,4.14844-2.2168
		C39.08203,40.37016,39.25586,38.61527,38.61621,37.06742z M36.48828,40.65043c-0.56543,0.84473-1.47168,1.3291-2.48633,1.3291
		c-0.00098,0-0.00195,0-0.00195,0l-20.00293-0.0127c-1.01562-0.00098-1.92188-0.48633-2.48633-1.33105
		c-0.56738-0.84766-0.66895-1.875-0.2793-2.81836l6.90186-16.69189c0.65088,0.22559,1.11914,0.74146,1.75732,1.50732
		c0.87598,1.05176,1.96484,2.36035,4.09863,2.36035c2.13574,0,3.22559-1.30859,4.10254-2.36035
		c0.64307-0.77124,1.11279-1.29077,1.771-1.51367l6.90576,16.71191C37.1582,38.77445,37.05566,39.8018,36.48828,40.65043z"/>
</g>
</svg>
