<?xml version="1.0" encoding="utf-8"?>
<!-- Generator: Adobe Illustrator 26.0.2, SVG Export Plug-In . SVG Version: 6.00 Build 0)  -->
<svg version="1.1" id="Icon" xmlns="http://www.w3.org/2000/svg" xmlns:xlink="http://www.w3.org/1999/xlink" x="0px" y="0px"
	 viewBox="0 0 48 48" enable-background="new 0 0 48 48" xml:space="preserve">
<g>
	<circle fill="#FFFFFF" cx="6" cy="37.5" r="1.5"/>
	<circle fill="#FFFFFF" cx="12" cy="37" r="2"/>
	<circle fill="#FFFFFF" cx="30" cy="27" r="2"/>
	<circle fill="#FFFFFF" cx="9" cy="32.5" r="1.5"/>
	<circle fill="#FFFFFF" cx="15" cy="32" r="2"/>
	<circle fill="#FFFFFF" cx="21" cy="32.5" r="1.5"/>
	<circle fill="#FFFFFF" cx="27" cy="32" r="2"/>
	<circle fill="#FFFFFF" cx="33" cy="32.5" r="1.5"/>
	<circle fill="#FFFFFF" cx="18" cy="37.5" r="1.5"/>
	<circle fill="#FFFFFF" cx="24" cy="37" r="2"/>
	<circle fill="#FFFFFF" cx="30" cy="37.5" r="1.5"/>
	<circle fill="#FFFFFF" cx="36" cy="37" r="2"/>
	<path fill="#FFFFFF" d="M23.24316,25.24219c-0.55176,0.55176-1.19434,0.98535-1.90723,1.28711
		c-1.48047,0.625-3.19238,0.625-4.6709,0c-0.71387-0.30176-1.35645-0.73535-1.90723-1.28613
		c-0.55176-0.55176-0.98535-1.19434-1.28711-1.90723C13.1582,22.5957,13,21.80957,13,21h-2
		c0,1.0791,0.21191,2.12598,0.62891,3.11426c0.40234,0.95215,0.97949,1.80762,1.71387,2.54395
		c0.73535,0.7334,1.59082,1.31055,2.54395,1.71289C16.87402,28.78809,17.9209,29,19,29s2.12598-0.21191,3.11426-0.62891
		c0.95215-0.40234,1.80762-0.97949,2.54395-1.71387c0.7334-0.73535,1.31055-1.59082,1.71289-2.54395
		C26.78809,23.12598,27,22.0791,27,21c0-0.2832-0.01465-0.5625-0.04297-0.83691c-0.1123-1.0791-0.51758-2.18848-1.20801-3.30566
		L19,6.12109l-6.4873,10.3125l1.69336,1.06445L19,9.87891l5.05176,8.03711c0.52734,0.85156,0.83496,1.67676,0.91602,2.45508
		C24.98926,20.57812,25,20.78711,25,21c0,0.80957-0.1582,1.5957-0.4707,2.33496
		C24.22754,24.04883,23.79395,24.69141,23.24316,25.24219z"/>
	<circle fill="#FFFFFF" cx="24" cy="7.5" r="1.5"/>
	<circle fill="#FFFFFF" cx="30" cy="17.5" r="1.5"/>
	<circle fill="#FFFFFF" cx="36" cy="27.5" r="1.5"/>
	<circle fill="#FFFFFF" cx="27" cy="12" r="2"/>
	<circle fill="#FFFFFF" cx="33" cy="22" r="2"/>
	<circle fill="#FFFFFF" cx="39" cy="32" r="2"/>
	<circle fill="#FFFFFF" cx="42" cy="37.5" r="1.5"/>
</g>
</svg>
