<?xml version="1.0" encoding="utf-8"?>
<!-- Generator: Adobe Illustrator 26.0.2, SVG Export Plug-In . SVG Version: 6.00 Build 0)  -->
<svg version="1.1" id="Icon" xmlns="http://www.w3.org/2000/svg" xmlns:xlink="http://www.w3.org/1999/xlink" x="0px" y="0px"
	 viewBox="0 0 48 48" enable-background="new 0 0 48 48" xml:space="preserve">
<g>
	<path fill="#FFFFFF" d="M46.375,18.32035l-2.54004-4.15527l0.00195-0.00586l-1.84131-3.01855l2.15283-2.15234l-3.42285-3.42285
		l-1.41406,1.41406l2.00879,2.00879l-0.9917,0.99121h-7.43018l-0.99316-0.99219l2.00781-2.00781l-1.41406-1.41406L29.0752,8.9893
		l2.15674,2.15295l-1.26318,2.07874l-0.46387,0.75854H13.58594L6,21.56547v20.41406h2V22.39359l6.41406-6.41406h13.86816
		l-1.43066,2.34082l1.70703,1.04297l1.65039-2.69983l3.01465,9.31604h6.77832l3.02002-9.30884l1.646,2.69263L46.375,18.32035z
		 M38.54883,23.97953h-3.87012l-3.0957-9.56421l1.48877-2.43579h7.08301l1.49414,2.44482L38.54883,23.97953z"/>
	<path fill="#FFFFFF" d="M16.58594,27.97953L12,32.56547v9.41406h2v-7h4v3h2v-3h2.49609l1.28564-1.30603l2.2251,2.22498
		l1.41406-1.41406l-2.23584-2.23596l1.82031-1.84924L30,33.39359v8.58594h2v-9.41406l-4.58594-4.58594H16.58594z M20,32.97953h-2
		h-3.58594l3-3h7.19824l-2.9541,3H20z"/>
	<rect x="36" y="29.97953" fill="#FFFFFF" width="2" height="11.97266"/>
</g>
</svg>
