<?xml version="1.0" encoding="utf-8"?>
<!-- Generator: Adobe Illustrator 26.0.2, SVG Export Plug-In . SVG Version: 6.00 Build 0)  -->
<svg version="1.1" id="Icon" xmlns="http://www.w3.org/2000/svg" xmlns:xlink="http://www.w3.org/1999/xlink" x="0px" y="0px"
	 viewBox="0 0 48 48" enable-background="new 0 0 48 48" xml:space="preserve">
<g>
	<path fill="#0303B8" d="M27.29004,30.43457c-0.51367,0.5127-1.11133,0.91504-1.77539,1.19629
		c-1.375,0.58203-2.9668,0.58203-4.3418,0c-0.66406-0.28125-1.26172-0.68359-1.77344-1.19434
		c-0.51367-0.51465-0.91699-1.1123-1.19727-1.77441c-0.29004-0.68848-0.4375-1.41992-0.4375-2.17188h-2
		c0,1.02051,0.2002,2.0127,0.5957,2.9502c0.38086,0.90137,0.92773,1.71191,1.625,2.41016
		c0.69531,0.69434,1.50586,1.24023,2.4082,1.62207c0.93555,0.39551,1.92871,0.59668,2.9502,0.59668s2.01465-0.20117,2.9502-0.59668
		c0.90234-0.38184,1.71289-0.92773,2.41016-1.62402c0.69531-0.69629,1.24219-1.50684,1.62305-2.40918
		c0.39551-0.93652,0.5957-1.92871,0.5957-2.94922c0-0.26953-0.01367-0.53516-0.04102-0.79199
		c-0.10547-1.02246-0.48926-2.07422-1.14355-3.13379l-6.39453-10.17188l-5.9707,9.49219l1.69336,1.06445l4.27734-6.79883
		l4.69727,7.47168c0.49023,0.79395,0.77637,1.56152,0.85156,2.28613c0.02051,0.19141,0.03027,0.38477,0.03027,0.58203
		c0,0.75195-0.14746,1.4834-0.4375,2.1709C28.20508,29.32422,27.80176,29.92188,27.29004,30.43457z"/>
	<path fill="#0303B8" d="M17.47021,7.90515l-1.3208,3.32922l1.85938,0.73828l2.50586-6.31934L14.2168,3.15527l-0.73633,1.85938
		l2.9248,1.15967C9.38184,9.12634,4.68359,16.01929,4.68359,23.84277c0,2.9375,0.64746,5.75879,1.9248,8.38379l1.79883-0.875
		c-1.14355-2.35059-1.72363-4.87695-1.72363-7.50879C6.68359,16.72949,11.02197,10.47949,17.47021,7.90515z"/>
	<path fill="#0303B8" d="M45.61914,26.56738l-3.06348,1.50439c0.31152-1.38135,0.48633-2.7937,0.48633-4.229
		c0-10.5752-8.60352-19.17871-19.17871-19.17871v2c9.47266,0,17.17871,7.70605,17.17871,17.17871
		c0,1.18115-0.13281,2.34473-0.36816,3.4856l-1.45605-2.96313l-1.79492,0.88281l2.99707,6.10156L46.5,28.3623L45.61914,26.56738z"/>
	<path fill="#0303B8" d="M23.86328,41.02148c-4.43164,0-8.60303-1.69482-11.77295-4.69043l3.49951-0.00781l-0.00391-2
		l-6.79785,0.01465l0.01465,6.77441l2-0.00391l-0.00732-3.23425c3.52881,3.2948,8.15869,5.14734,13.06787,5.14734
		c6.51953,0,12.53613-3.26855,16.09375-8.74316l-1.67773-1.08984C35.09277,38.09375,29.70312,41.02148,23.86328,41.02148z"/>
</g>
</svg>
